<svg xmlns="http://www.w3.org/2000/svg" width="108" height="36" viewBox="0 0 108 36" fill="none" class="app-store"><rect x="0.4" y="0.4" width="107.2" height="35.2" rx="4.4" fill="white"></rect><rect x="0.4" y="0.4" width="107.2" height="35.2" rx="4.4" stroke="#E1E1E2" stroke-width="0.8"></rect><path d="M19.764 18.2105C19.7737 17.4746 19.9739 16.753 20.346 16.1129C20.7181 15.4728 21.25 14.9351 21.8922 14.5496C21.4843 13.9808 20.9461 13.5126 20.3204 13.1824C19.6947 12.8521 18.9987 12.6689 18.2878 12.6472C16.7712 12.4917 15.301 13.5331 14.5282 13.5331C13.7404 13.5331 12.5506 12.6626 11.2693 12.6883C10.4406 12.7145 9.63286 12.9498 8.92494 13.3713C8.21701 13.7928 7.63299 14.3861 7.22978 15.0935C5.48321 18.0458 6.78599 22.3847 8.4591 24.7712C9.29619 25.9397 10.2745 27.2451 11.5546 27.1988C12.8073 27.1481 13.2751 26.4189 14.7872 26.4189C16.2853 26.4189 16.7242 27.1988 18.0303 27.1694C19.3745 27.1481 20.2213 25.9956 21.0291 24.816C21.6305 23.9833 22.0934 23.0631 22.4004 22.0893C21.6195 21.7668 20.953 21.227 20.4842 20.5373C20.0154 19.8475 19.7649 19.0383 19.764 18.2105Z" fill="black"></path><path d="M17.2972 11.0777C18.0301 10.2187 18.3912 9.11468 18.3038 8C17.1841 8.11482 16.1498 8.63728 15.407 9.46328C15.0438 9.86681 14.7656 10.3363 14.5884 10.8448C14.4112 11.3533 14.3383 11.891 14.3741 12.427C14.9341 12.4327 15.4882 12.3142 15.9945 12.0804C16.5009 11.8467 16.9463 11.5039 17.2972 11.0777Z" fill="black"></path><path d="M30.9166 8.9816C31.4638 8.9816 31.9366 9.0848 32.335 9.2912C32.7382 9.4928 33.0454 9.7832 33.2566 10.1624C33.4726 10.5416 33.5806 10.988 33.5806 11.5016C33.5806 12.0152 33.4726 12.4616 33.2566 12.8408C33.0454 13.2152 32.7382 13.5032 32.335 13.7048C31.9366 13.9016 31.4638 14 30.9166 14H29.3542V8.9816H30.9166ZM30.9166 13.46C31.5646 13.46 32.059 13.2896 32.3998 12.9488C32.7406 12.6032 32.911 12.1208 32.911 11.5016C32.911 10.8776 32.7382 10.3904 32.3926 10.04C32.0518 9.6896 31.5598 9.5144 30.9166 9.5144H30.0094V13.46H30.9166ZM36.1656 14.0648C35.796 14.0648 35.46 13.9808 35.1576 13.8128C34.86 13.6448 34.6248 13.4072 34.452 13.1C34.284 12.788 34.2 12.428 34.2 12.02C34.2 11.6168 34.2864 11.2616 34.4592 10.9544C34.6368 10.6424 34.8768 10.4048 35.1792 10.2416C35.4816 10.0736 35.82 9.9896 36.1944 9.9896C36.5688 9.9896 36.9072 10.0736 37.2096 10.2416C37.512 10.4048 37.7496 10.64 37.9224 10.9472C38.1 11.2544 38.1888 11.612 38.1888 12.02C38.1888 12.428 38.0976 12.788 37.9152 13.1C37.7376 13.4072 37.4952 13.6448 37.188 13.8128C36.8808 13.9808 36.54 14.0648 36.1656 14.0648ZM36.1656 13.4888C36.4008 13.4888 36.6216 13.4336 36.828 13.3232C37.0344 13.2128 37.2 13.0472 37.3248 12.8264C37.4544 12.6056 37.5192 12.3368 37.5192 12.02C37.5192 11.7032 37.4568 11.4344 37.332 11.2136C37.2072 10.9928 37.044 10.8296 36.8424 10.724C36.6408 10.6136 36.4224 10.5584 36.1872 10.5584C35.9472 10.5584 35.7264 10.6136 35.5248 10.724C35.328 10.8296 35.1696 10.9928 35.0496 11.2136C34.9296 11.4344 34.8696 11.7032 34.8696 12.02C34.8696 12.3416 34.9272 12.6128 35.0424 12.8336C35.1624 13.0544 35.3208 13.22 35.5176 13.3304C35.7144 13.436 35.9304 13.4888 36.1656 13.4888ZM44.3063 10.0544L43.0751 14H42.3983L41.4479 10.868L40.4975 14H39.8207L38.5823 10.0544H39.2519L40.1591 13.3664L41.1383 10.0544H41.8079L42.7655 13.3736L43.6583 10.0544H44.3063ZM46.8789 9.9824C47.3589 9.9824 47.7477 10.1288 48.0453 10.4216C48.3429 10.7096 48.4917 11.1272 48.4917 11.6744V14H47.8437V11.768C47.8437 11.3744 47.7453 11.0744 47.5485 10.868C47.3517 10.6568 47.0829 10.5512 46.7421 10.5512C46.3965 10.5512 46.1205 10.6592 45.9141 10.8752C45.7125 11.0912 45.6117 11.4056 45.6117 11.8184V14H44.9565V10.0544H45.6117V10.616C45.7413 10.4144 45.9165 10.2584 46.1373 10.148C46.3629 10.0376 46.6101 9.9824 46.8789 9.9824ZM50.2172 8.672V14H49.562V8.672H50.2172ZM53.0547 14.0648C52.6851 14.0648 52.3491 13.9808 52.0467 13.8128C51.7491 13.6448 51.5139 13.4072 51.3411 13.1C51.1731 12.788 51.0891 12.428 51.0891 12.02C51.0891 11.6168 51.1755 11.2616 51.3483 10.9544C51.5259 10.6424 51.7659 10.4048 52.0683 10.2416C52.3707 10.0736 52.7091 9.9896 53.0835 9.9896C53.4579 9.9896 53.7963 10.0736 54.0987 10.2416C54.4011 10.4048 54.6387 10.64 54.8115 10.9472C54.9891 11.2544 55.0779 11.612 55.0779 12.02C55.0779 12.428 54.9867 12.788 54.8043 13.1C54.6267 13.4072 54.3843 13.6448 54.0771 13.8128C53.7699 13.9808 53.4291 14.0648 53.0547 14.0648ZM53.0547 13.4888C53.2899 13.4888 53.5107 13.4336 53.7171 13.3232C53.9235 13.2128 54.0891 13.0472 54.2139 12.8264C54.3435 12.6056 54.4083 12.3368 54.4083 12.02C54.4083 11.7032 54.3459 11.4344 54.2211 11.2136C54.0963 10.9928 53.9331 10.8296 53.7315 10.724C53.5299 10.6136 53.3115 10.5584 53.0763 10.5584C52.8363 10.5584 52.6155 10.6136 52.4139 10.724C52.2171 10.8296 52.0587 10.9928 51.9387 11.2136C51.8187 11.4344 51.7587 11.7032 51.7587 12.02C51.7587 12.3416 51.8163 12.6128 51.9315 12.8336C52.0515 13.0544 52.2099 13.22 52.4067 13.3304C52.6035 13.436 52.8195 13.4888 53.0547 13.4888ZM55.6946 12.0128C55.6946 11.6096 55.7762 11.2568 55.9394 10.9544C56.1026 10.6472 56.3258 10.4096 56.609 10.2416C56.897 10.0736 57.2162 9.9896 57.5666 9.9896C57.9122 9.9896 58.2122 10.064 58.4666 10.2128C58.721 10.3616 58.9106 10.5488 59.0354 10.7744V10.0544H59.6978V14H59.0354V13.2656C58.9058 13.496 58.7114 13.688 58.4522 13.8416C58.1978 13.9904 57.9002 14.0648 57.5594 14.0648C57.209 14.0648 56.8922 13.9784 56.609 13.8056C56.3258 13.6328 56.1026 13.3904 55.9394 13.0784C55.7762 12.7664 55.6946 12.4112 55.6946 12.0128ZM59.0354 12.02C59.0354 11.7224 58.9754 11.4632 58.8554 11.2424C58.7354 11.0216 58.5722 10.8536 58.3658 10.7384C58.1642 10.6184 57.941 10.5584 57.6962 10.5584C57.4514 10.5584 57.2282 10.616 57.0266 10.7312C56.825 10.8464 56.6642 11.0144 56.5442 11.2352C56.4242 11.456 56.3642 11.7152 56.3642 12.0128C56.3642 12.3152 56.4242 12.5792 56.5442 12.8048C56.6642 13.0256 56.825 13.196 57.0266 13.316C57.2282 13.4312 57.4514 13.4888 57.6962 13.4888C57.941 13.4888 58.1642 13.4312 58.3658 13.316C58.5722 13.196 58.7354 13.0256 58.8554 12.8048C58.9754 12.5792 59.0354 12.3176 59.0354 12.02ZM60.5602 12.0128C60.5602 11.6096 60.6418 11.2568 60.805 10.9544C60.9682 10.6472 61.1914 10.4096 61.4746 10.2416C61.7626 10.0736 62.0842 9.9896 62.4394 9.9896C62.7466 9.9896 63.0322 10.0616 63.2962 10.2056C63.5602 10.3448 63.7618 10.5296 63.901 10.76V8.672H64.5634V14H63.901V13.2584C63.7714 13.4936 63.5794 13.688 63.325 13.8416C63.0706 13.9904 62.773 14.0648 62.4322 14.0648C62.0818 14.0648 61.7626 13.9784 61.4746 13.8056C61.1914 13.6328 60.9682 13.3904 60.805 13.0784C60.6418 12.7664 60.5602 12.4112 60.5602 12.0128ZM63.901 12.02C63.901 11.7224 63.841 11.4632 63.721 11.2424C63.601 11.0216 63.4378 10.8536 63.2314 10.7384C63.0298 10.6184 62.8066 10.5584 62.5618 10.5584C62.317 10.5584 62.0938 10.616 61.8922 10.7312C61.6906 10.8464 61.5298 11.0144 61.4098 11.2352C61.2898 11.456 61.2298 11.7152 61.2298 12.0128C61.2298 12.3152 61.2898 12.5792 61.4098 12.8048C61.5298 13.0256 61.6906 13.196 61.8922 13.316C62.0938 13.4312 62.317 13.4888 62.5618 13.4888C62.8066 13.4888 63.0298 13.4312 63.2314 13.316C63.4378 13.196 63.601 13.0256 63.721 12.8048C63.841 12.5792 63.901 12.3176 63.901 12.02ZM69.3109 14.0648C68.9413 14.0648 68.6053 13.9808 68.3029 13.8128C68.0053 13.6448 67.7701 13.4072 67.5973 13.1C67.4293 12.788 67.3453 12.428 67.3453 12.02C67.3453 11.6168 67.4317 11.2616 67.6045 10.9544C67.7821 10.6424 68.0221 10.4048 68.3245 10.2416C68.6269 10.0736 68.9653 9.9896 69.3397 9.9896C69.7141 9.9896 70.0525 10.0736 70.3549 10.2416C70.6573 10.4048 70.8949 10.64 71.0677 10.9472C71.2453 11.2544 71.3341 11.612 71.3341 12.02C71.3341 12.428 71.2429 12.788 71.0605 13.1C70.8829 13.4072 70.6405 13.6448 70.3333 13.8128C70.0261 13.9808 69.6853 14.0648 69.3109 14.0648ZM69.3109 13.4888C69.5461 13.4888 69.7669 13.4336 69.9733 13.3232C70.1797 13.2128 70.3453 13.0472 70.4701 12.8264C70.5997 12.6056 70.6645 12.3368 70.6645 12.02C70.6645 11.7032 70.6021 11.4344 70.4773 11.2136C70.3525 10.9928 70.1893 10.8296 69.9877 10.724C69.7861 10.6136 69.5677 10.5584 69.3325 10.5584C69.0925 10.5584 68.8717 10.6136 68.6701 10.724C68.4733 10.8296 68.3149 10.9928 68.1949 11.2136C68.0749 11.4344 68.0149 11.7032 68.0149 12.02C68.0149 12.3416 68.0725 12.6128 68.1877 12.8336C68.3077 13.0544 68.4661 13.22 68.6629 13.3304C68.8597 13.436 69.0757 13.4888 69.3109 13.4888ZM74.118 9.9824C74.598 9.9824 74.9868 10.1288 75.2844 10.4216C75.582 10.7096 75.7308 11.1272 75.7308 11.6744V14H75.0828V11.768C75.0828 11.3744 74.9844 11.0744 74.7876 10.868C74.5908 10.6568 74.322 10.5512 73.9812 10.5512C73.6356 10.5512 73.3596 10.6592 73.1532 10.8752C72.9516 11.0912 72.8508 11.4056 72.8508 11.8184V14H72.1956V10.0544H72.8508V10.616C72.9804 10.4144 73.1556 10.2584 73.3764 10.148C73.602 10.0376 73.8492 9.9824 74.118 9.9824ZM79.5198 10.5944V12.92C79.5198 13.112 79.5606 13.2488 79.6422 13.3304C79.7238 13.4072 79.8654 13.4456 80.067 13.4456H80.5494V14H79.959C79.5942 14 79.3206 13.916 79.1382 13.748C78.9558 13.58 78.8646 13.304 78.8646 12.92V10.5944H78.3534V10.0544H78.8646V9.0608H79.5198V10.0544H80.5494V10.5944H79.5198ZM83.3017 9.9824C83.5993 9.9824 83.8681 10.0472 84.1081 10.1768C84.3481 10.3016 84.5353 10.4912 84.6697 10.7456C84.8089 11 84.8785 11.3096 84.8785 11.6744V14H84.2305V11.768C84.2305 11.3744 84.1321 11.0744 83.9353 10.868C83.7385 10.6568 83.4697 10.5512 83.1289 10.5512C82.7833 10.5512 82.5073 10.6592 82.3009 10.8752C82.0993 11.0912 81.9985 11.4056 81.9985 11.8184V14H81.3433V8.672H81.9985V10.616C82.1281 10.4144 82.3057 10.2584 82.5313 10.148C82.7617 10.0376 83.0185 9.9824 83.3017 9.9824ZM89.5487 11.876C89.5487 12.0008 89.5415 12.1328 89.5271 12.272H86.3735C86.3975 12.6608 86.5295 12.9656 86.7695 13.1864C87.0143 13.4024 87.3095 13.5104 87.6551 13.5104C87.9383 13.5104 88.1735 13.4456 88.3607 13.316C88.5527 13.1816 88.6871 13.004 88.7639 12.7832H89.4695C89.3639 13.1624 89.1527 13.472 88.8359 13.712C88.5191 13.9472 88.1255 14.0648 87.6551 14.0648C87.2807 14.0648 86.9447 13.9808 86.6471 13.8128C86.3543 13.6448 86.1239 13.4072 85.9559 13.1C85.7879 12.788 85.7039 12.428 85.7039 12.02C85.7039 11.612 85.7855 11.2544 85.9487 10.9472C86.1119 10.64 86.3399 10.4048 86.6327 10.2416C86.9303 10.0736 87.2711 9.9896 87.6551 9.9896C88.0295 9.9896 88.3607 10.0712 88.6487 10.2344C88.9367 10.3976 89.1575 10.6232 89.3111 10.9112C89.4695 11.1944 89.5487 11.516 89.5487 11.876ZM88.8719 11.7392C88.8719 11.4896 88.8167 11.276 88.7063 11.0984C88.5959 10.916 88.4447 10.7792 88.2527 10.688C88.0655 10.592 87.8567 10.544 87.6263 10.544C87.2951 10.544 87.0119 10.6496 86.7767 10.8608C86.5463 11.072 86.4143 11.3648 86.3807 11.7392H88.8719Z" fill="black"></path><path d="M34.7638 24.404H31.4278L30.8758 26H29.1118L32.1238 17.612H34.0798L37.0918 26H35.3158L34.7638 24.404ZM34.3078 23.06L33.0958 19.556L31.8838 23.06H34.3078ZM39.5216 20.312C39.7376 20.008 40.0336 19.756 40.4096 19.556C40.7936 19.348 41.2296 19.244 41.7176 19.244C42.2856 19.244 42.7976 19.384 43.2536 19.664C43.7176 19.944 44.0816 20.344 44.3456 20.864C44.6176 21.376 44.7536 21.972 44.7536 22.652C44.7536 23.332 44.6176 23.936 44.3456 24.464C44.0816 24.984 43.7176 25.388 43.2536 25.676C42.7976 25.964 42.2856 26.108 41.7176 26.108C41.2296 26.108 40.7976 26.008 40.4216 25.808C40.0536 25.608 39.7536 25.356 39.5216 25.052V29.168H37.8416V19.352H39.5216V20.312ZM43.0376 22.652C43.0376 22.252 42.9536 21.908 42.7856 21.62C42.6256 21.324 42.4096 21.1 42.1376 20.948C41.8736 20.796 41.5856 20.72 41.2736 20.72C40.9696 20.72 40.6816 20.8 40.4096 20.96C40.1456 21.112 39.9296 21.336 39.7616 21.632C39.6016 21.928 39.5216 22.276 39.5216 22.676C39.5216 23.076 39.6016 23.424 39.7616 23.72C39.9296 24.016 40.1456 24.244 40.4096 24.404C40.6816 24.556 40.9696 24.632 41.2736 24.632C41.5856 24.632 41.8736 24.552 42.1376 24.392C42.4096 24.232 42.6256 24.004 42.7856 23.708C42.9536 23.412 43.0376 23.06 43.0376 22.652ZM47.2785 20.312C47.4945 20.008 47.7905 19.756 48.1665 19.556C48.5505 19.348 48.9865 19.244 49.4745 19.244C50.0425 19.244 50.5545 19.384 51.0105 19.664C51.4745 19.944 51.8385 20.344 52.1025 20.864C52.3745 21.376 52.5105 21.972 52.5105 22.652C52.5105 23.332 52.3745 23.936 52.1025 24.464C51.8385 24.984 51.4745 25.388 51.0105 25.676C50.5545 25.964 50.0425 26.108 49.4745 26.108C48.9865 26.108 48.5545 26.008 48.1785 25.808C47.8105 25.608 47.5105 25.356 47.2785 25.052V29.168H45.5985V19.352H47.2785V20.312ZM50.7945 22.652C50.7945 22.252 50.7105 21.908 50.5425 21.62C50.3825 21.324 50.1665 21.1 49.8945 20.948C49.6305 20.796 49.3425 20.72 49.0305 20.72C48.7265 20.72 48.4385 20.8 48.1665 20.96C47.9025 21.112 47.6865 21.336 47.5185 21.632C47.3585 21.928 47.2785 22.276 47.2785 22.676C47.2785 23.076 47.3585 23.424 47.5185 23.72C47.6865 24.016 47.9025 24.244 48.1665 24.404C48.4385 24.556 48.7265 24.632 49.0305 24.632C49.3425 24.632 49.6305 24.552 49.8945 24.392C50.1665 24.232 50.3825 24.004 50.5425 23.708C50.7105 23.412 50.7945 23.06 50.7945 22.652ZM58.7306 26.084C58.1466 26.084 57.6186 25.984 57.1466 25.784C56.6826 25.584 56.3146 25.296 56.0426 24.92C55.7706 24.544 55.6306 24.1 55.6226 23.588H57.4226C57.4466 23.932 57.5666 24.204 57.7826 24.404C58.0066 24.604 58.3106 24.704 58.6946 24.704C59.0866 24.704 59.3946 24.612 59.6186 24.428C59.8426 24.236 59.9546 23.988 59.9546 23.684C59.9546 23.436 59.8786 23.232 59.7266 23.072C59.5746 22.912 59.3826 22.788 59.1506 22.7C58.9266 22.604 58.6146 22.5 58.2146 22.388C57.6706 22.228 57.2266 22.072 56.8826 21.92C56.5466 21.76 56.2546 21.524 56.0066 21.212C55.7666 20.892 55.6466 20.468 55.6466 19.94C55.6466 19.444 55.7706 19.012 56.0186 18.644C56.2666 18.276 56.6146 17.996 57.0626 17.804C57.5106 17.604 58.0226 17.504 58.5986 17.504C59.4626 17.504 60.1626 17.716 60.6986 18.14C61.2426 18.556 61.5426 19.14 61.5986 19.892H59.7506C59.7346 19.604 59.6106 19.368 59.3786 19.184C59.1546 18.992 58.8546 18.896 58.4786 18.896C58.1506 18.896 57.8866 18.98 57.6866 19.148C57.4946 19.316 57.3986 19.56 57.3986 19.88C57.3986 20.104 57.4706 20.292 57.6146 20.444C57.7666 20.588 57.9506 20.708 58.1666 20.804C58.3906 20.892 58.7026 20.996 59.1026 21.116C59.6466 21.276 60.0906 21.436 60.4346 21.596C60.7786 21.756 61.0746 21.996 61.3226 22.316C61.5706 22.636 61.6946 23.056 61.6946 23.576C61.6946 24.024 61.5786 24.44 61.3466 24.824C61.1146 25.208 60.7746 25.516 60.3266 25.748C59.8786 25.972 59.3466 26.084 58.7306 26.084ZM64.7311 20.732V23.948C64.7311 24.172 64.7831 24.336 64.8871 24.44C64.9991 24.536 65.1831 24.584 65.4391 24.584H66.2191V26H65.1631C63.7471 26 63.0391 25.312 63.0391 23.936V20.732H62.2471V19.352H63.0391V17.708H64.7311V19.352H66.2191V20.732H64.7311ZM70.0035 26.108C69.3635 26.108 68.7875 25.968 68.2755 25.688C67.7635 25.4 67.3595 24.996 67.0635 24.476C66.7755 23.956 66.6315 23.356 66.6315 22.676C66.6315 21.996 66.7795 21.396 67.0755 20.876C67.3795 20.356 67.7915 19.956 68.3115 19.676C68.8315 19.388 69.4115 19.244 70.0515 19.244C70.6915 19.244 71.2715 19.388 71.7915 19.676C72.3115 19.956 72.7195 20.356 73.0155 20.876C73.3195 21.396 73.4715 21.996 73.4715 22.676C73.4715 23.356 73.3155 23.956 73.0035 24.476C72.6995 24.996 72.2835 25.4 71.7555 25.688C71.2355 25.968 70.6515 26.108 70.0035 26.108ZM70.0035 24.644C70.3075 24.644 70.5915 24.572 70.8555 24.428C71.1275 24.276 71.3435 24.052 71.5035 23.756C71.6635 23.46 71.7435 23.1 71.7435 22.676C71.7435 22.044 71.5755 21.56 71.2395 21.224C70.9115 20.88 70.5075 20.708 70.0275 20.708C69.5475 20.708 69.1435 20.88 68.8155 21.224C68.4955 21.56 68.3355 22.044 68.3355 22.676C68.3355 23.308 68.4915 23.796 68.8035 24.14C69.1235 24.476 69.5235 24.644 70.0035 24.644ZM76.0078 20.384C76.2238 20.032 76.5038 19.756 76.8478 19.556C77.1998 19.356 77.5998 19.256 78.0478 19.256V21.02H77.6038C77.0758 21.02 76.6758 21.144 76.4038 21.392C76.1398 21.64 76.0078 22.072 76.0078 22.688V26H74.3278V19.352H76.0078V20.384ZM84.9834 22.532C84.9834 22.772 84.9674 22.988 84.9354 23.18H80.0754C80.1154 23.66 80.2834 24.036 80.5794 24.308C80.8754 24.58 81.2394 24.716 81.6714 24.716C82.2954 24.716 82.7394 24.448 83.0034 23.912H84.8154C84.6234 24.552 84.2554 25.08 83.7114 25.496C83.1674 25.904 82.4994 26.108 81.7074 26.108C81.0674 26.108 80.4914 25.968 79.9794 25.688C79.4754 25.4 79.0794 24.996 78.7914 24.476C78.5114 23.956 78.3714 23.356 78.3714 22.676C78.3714 21.988 78.5114 21.384 78.7914 20.864C79.0714 20.344 79.4634 19.944 79.9674 19.664C80.4714 19.384 81.0514 19.244 81.7074 19.244C82.3394 19.244 82.9034 19.38 83.3994 19.652C83.9034 19.924 84.2914 20.312 84.5634 20.816C84.8434 21.312 84.9834 21.884 84.9834 22.532ZM83.2434 22.052C83.2354 21.62 83.0794 21.276 82.7754 21.02C82.4714 20.756 82.0994 20.624 81.6594 20.624C81.2434 20.624 80.8914 20.752 80.6034 21.008C80.3234 21.256 80.1514 21.604 80.0874 22.052H83.2434Z" fill="black"></path></svg>