<svg xmlns="http://www.w3.org/2000/svg" width="108" height="36" viewBox="0 0 108 36" fill="none" class="play-store"><rect x="0.400004" y="0.400004" width="107.2" height="35.2" rx="4.40004" fill="white"></rect><rect x="0.400004" y="0.400004" width="107.2" height="35.2" rx="4.40004" stroke="#E1E1E2" stroke-width="0.800008"></rect><path d="M14.2449 17.1704L6.47266 25.6059C6.47339 25.6074 6.47339 25.6096 6.47412 25.6111C6.71282 26.5271 7.53042 27.2012 8.50131 27.2012C8.88967 27.2012 9.25394 27.0937 9.56637 26.9056L9.59119 26.8906L18.3394 21.7286L14.2449 17.1704Z" fill="#EA4335"></path><path d="M22.1068 15.7329L22.0995 15.7277L18.3225 13.4889L14.0674 17.361L18.3379 21.7266L22.0944 19.5102C22.7529 19.1459 23.2003 18.436 23.2003 17.6178C23.2003 16.8041 22.7594 16.0979 22.1068 15.7329Z" fill="#FBBC04"></path><path d="M6.47193 9.59522C6.42521 9.77139 6.40039 9.95653 6.40039 10.1476V25.0538C6.40039 25.2449 6.42521 25.43 6.47266 25.6055L14.5114 17.3857L6.47193 9.59522Z" fill="#4285F4"></path><path d="M14.3016 17.5996L18.3239 13.4871L9.58584 8.30639C9.26829 8.11156 8.89745 7.99958 8.50106 7.99958C7.53017 7.99958 6.71112 8.67517 6.47241 9.59187C6.47241 9.59262 6.47168 9.59336 6.47168 9.59411L14.3016 17.5996Z" fill="#34A853"></path><path d="M33.6408 11.04C33.4862 10.7146 33.2622 10.464 32.9688 10.288C32.6755 10.1066 32.3342 10.0159 31.9448 10.0159C31.5555 10.0159 31.2035 10.1066 30.8888 10.288C30.5795 10.464 30.3341 10.72 30.1528 11.056C29.9768 11.3866 29.8888 11.7706 29.8888 12.208C29.8888 12.6453 29.9768 13.0293 30.1528 13.36C30.3341 13.6907 30.5795 13.9467 30.8888 14.128C31.2035 14.304 31.5555 14.392 31.9448 14.392C32.4888 14.392 32.9368 14.2293 33.2888 13.904C33.6408 13.5787 33.8462 13.1386 33.9048 12.584H31.6808V11.992H34.6808V12.552C34.6382 13.0106 34.4942 13.432 34.2488 13.816C34.0035 14.1947 33.6808 14.496 33.2808 14.72C32.8808 14.9387 32.4355 15.048 31.9448 15.048C31.4275 15.048 30.9555 14.928 30.5288 14.688C30.1021 14.4427 29.7635 14.104 29.5128 13.672C29.2675 13.24 29.1448 12.752 29.1448 12.208C29.1448 11.664 29.2675 11.176 29.5128 10.744C29.7635 10.3066 30.1021 9.96795 30.5288 9.72795C30.9555 9.48261 31.4275 9.35994 31.9448 9.35994C32.5368 9.35994 33.0595 9.50661 33.5128 9.79995C33.9715 10.0933 34.3048 10.5066 34.5128 11.04H33.6408ZM36.3714 10.0159V11.88H38.4034V12.48H36.3714V14.4H38.6434V15H35.6434V9.41594H38.6434V10.0159H36.3714ZM43.1771 9.42394V10.0159H41.657V15H40.929V10.0159H39.401V9.42394H43.1771ZM46.934 9.42394V15H46.206V9.42394H46.934ZM51.6068 9.42394V10.0159H50.0868V15H49.3588V10.0159H47.8308V9.42394H51.6068ZM57.1638 15.056C56.6465 15.056 56.1745 14.936 55.7478 14.696C55.3211 14.4507 54.9825 14.112 54.7318 13.68C54.4865 13.2426 54.3638 12.752 54.3638 12.208C54.3638 11.664 54.4865 11.176 54.7318 10.744C54.9825 10.3066 55.3211 9.96795 55.7478 9.72795C56.1745 9.48261 56.6465 9.35994 57.1638 9.35994C57.6865 9.35994 58.1612 9.48261 58.5878 9.72795C59.0145 9.96795 59.3505 10.304 59.5958 10.736C59.8412 11.168 59.9638 11.6586 59.9638 12.208C59.9638 12.7573 59.8412 13.248 59.5958 13.68C59.3505 14.112 59.0145 14.4507 58.5878 14.696C58.1612 14.936 57.6865 15.056 57.1638 15.056ZM57.1638 14.424C57.5532 14.424 57.9025 14.3333 58.2118 14.152C58.5265 13.9707 58.7718 13.712 58.9478 13.376C59.1292 13.04 59.2198 12.6506 59.2198 12.208C59.2198 11.76 59.1292 11.3706 58.9478 11.04C58.7718 10.704 58.5292 10.4453 58.2198 10.264C57.9105 10.0826 57.5585 9.99195 57.1638 9.99195C56.7691 9.99195 56.4171 10.0826 56.1078 10.264C55.7985 10.4453 55.5531 10.704 55.3718 11.04C55.1958 11.3706 55.1078 11.76 55.1078 12.208C55.1078 12.6506 55.1958 13.04 55.3718 13.376C55.5531 13.712 55.7985 13.9707 56.1078 14.152C56.4225 14.3333 56.7745 14.424 57.1638 14.424ZM65.309 15H64.581L61.6529 10.56V15H60.9249V9.41594H61.6529L64.581 13.848V9.41594H65.309V15Z" fill="black"></path><path d="M74.8157 27.1279H76.1188V18.3186H74.8157V27.1279ZM86.5524 21.4918L85.0587 25.3113H85.014L83.4637 21.4918H82.0601L84.3848 26.8299L83.0601 29.7994H84.4183L88.0014 21.4918H86.5524ZM79.1628 26.1273C78.7354 26.1273 78.1404 25.9124 78.1404 25.3789C78.1404 24.6996 78.8814 24.4389 79.5217 24.4389C80.0943 24.4389 80.3646 24.5636 80.7123 24.7334C80.6111 25.5494 79.9149 26.1273 79.1628 26.1273ZM79.3199 21.2995C78.3765 21.2995 77.3988 21.7188 76.9952 22.6482L78.1516 23.1352C78.3988 22.6482 78.859 22.489 79.3422 22.489C80.0161 22.489 80.7012 22.897 80.7123 23.6228V23.713C80.4763 23.577 79.9714 23.3734 79.3534 23.3734C78.1069 23.3734 76.8374 24.0647 76.8374 25.3564C76.8374 26.5353 77.8597 27.2949 79.005 27.2949C79.8813 27.2949 80.3646 26.8982 80.6676 26.4331H80.7123V27.1131H81.97V23.7356C81.97 22.1719 80.8136 21.2995 79.3199 21.2995ZM71.2669 22.5644H69.4136V19.5448H71.2669C72.241 19.5448 72.7941 20.3587 72.7941 21.0542C72.7941 21.7371 72.241 22.5644 71.2669 22.5644ZM71.2334 18.3186H68.1112V27.1279H69.4136V23.7905H71.2334C72.6775 23.7905 74.0972 22.7349 74.0972 21.0542C74.0972 19.3736 72.6775 18.3186 71.2334 18.3186ZM54.2077 26.1287C53.3076 26.1287 52.5541 25.3683 52.5541 24.324C52.5541 23.2684 53.3076 22.496 54.2077 22.496C55.0966 22.496 55.7936 23.2684 55.7936 24.324C55.7936 25.3683 55.0966 26.1287 54.2077 26.1287ZM55.7042 21.9851H55.6588C55.3662 21.6335 54.804 21.3157 54.0953 21.3157C52.6099 21.3157 51.2489 22.632 51.2489 24.324C51.2489 26.004 52.6099 27.3097 54.0953 27.3097C54.804 27.3097 55.3662 26.9919 55.6588 26.6283H55.7042V27.0603C55.7042 28.2068 55.0966 28.8199 54.1176 28.8199C53.3187 28.8199 52.8236 28.2406 52.6211 27.7523L51.4849 28.2294C51.8111 29.0243 52.6777 30.0002 54.1176 30.0002C55.6476 30.0002 56.9416 29.0919 56.9416 26.8785V21.4968H55.7042V21.9851ZM57.8417 27.1279H59.1469V18.3179H57.8417V27.1279ZM61.0701 24.2218C61.0365 23.064 61.959 22.4735 62.6224 22.4735C63.1406 22.4735 63.5791 22.7342 63.7251 23.1091L61.0701 24.2218ZM65.1203 23.2226C64.8731 22.5531 64.1189 21.3157 62.5777 21.3157C61.0477 21.3157 59.7768 22.5299 59.7768 24.3127C59.7768 25.9927 61.0365 27.3097 62.7237 27.3097C64.0854 27.3097 64.8731 26.4698 65.1992 25.9814L64.1866 25.3C63.8494 25.7996 63.3878 26.1287 62.7237 26.1287C62.0603 26.1287 61.5875 25.8222 61.2837 25.2211L65.2551 23.5629L65.1203 23.2226ZM33.4809 22.2353V23.5065H36.4955C36.4055 24.2218 36.1694 24.744 35.8098 25.1069C35.3706 25.5501 34.6841 26.0385 33.4809 26.0385C31.6241 26.0385 30.173 24.5283 30.173 22.6553C30.173 20.7815 31.6241 19.2721 33.4809 19.2721C34.4823 19.2721 35.2134 19.6695 35.7532 20.1804L36.6422 19.2834C35.888 18.5568 34.8873 18.0001 33.4809 18.0001C30.9383 18.0001 28.8008 20.0895 28.8008 22.6553C28.8008 25.2211 30.9383 27.3097 33.4809 27.3097C34.8531 27.3097 35.888 26.8552 36.6981 26.004C37.5312 25.164 37.7895 23.9836 37.7895 23.0295C37.7895 22.7342 37.7672 22.4622 37.7218 22.2353H33.4809ZM41.2176 26.1287C40.3174 26.1287 39.5409 25.3796 39.5409 24.3127C39.5409 23.2338 40.3174 22.496 41.2176 22.496C42.117 22.496 42.8935 23.2338 42.8935 24.3127C42.8935 25.3796 42.117 26.1287 41.2176 26.1287ZM41.2176 21.3157C39.5744 21.3157 38.2358 22.5757 38.2358 24.3127C38.2358 26.0385 39.5744 27.3097 41.2176 27.3097C42.86 27.3097 44.1987 26.0385 44.1987 24.3127C44.1987 22.5757 42.86 21.3157 41.2176 21.3157ZM47.721 26.1287C46.8209 26.1287 46.0443 25.3796 46.0443 24.3127C46.0443 23.2338 46.8209 22.496 47.721 22.496C48.6211 22.496 49.397 23.2338 49.397 24.3127C49.397 25.3796 48.6211 26.1287 47.721 26.1287ZM47.721 21.3157C46.0786 21.3157 44.7399 22.5757 44.7399 24.3127C44.7399 26.0385 46.0786 27.3097 47.721 27.3097C49.3635 27.3097 50.7021 26.0385 50.7021 24.3127C50.7021 22.5757 49.3635 21.3157 47.721 21.3157Z" fill="black"></path></svg>